<?xml version="1.0" encoding="UTF-8" standalone="no"?>
<!DOCTYPE svg PUBLIC "-//W3C//DTD SVG 1.1//EN" "http://www.w3.org/Graphics/SVG/1.1/DTD/svg11.dtd">
<svg version="1.1" xmlns="http://www.w3.org/2000/svg" xmlns:xlink="http://www.w3.org/1999/xlink" preserveAspectRatio="xMidYMid meet" viewBox="0 0 640 640" width="1080" height="1080"><defs><path d="M225.66 433.99L225.66 595.14L320 469.36L225.66 433.99Z" id="a7NbXgq6Z"></path><path d="M321 213.05L321 508.64L75.34 402.72L75.34 139.16L321 213.05Z" id="ccoPrnf"></path><path d="M321 213.05L321 508.64L566.66 402.72L566.66 139.16L321 213.05Z" id="a3NgBNrkDT"></path><path d="M321 64.51L566.66 141.16L321 213.87L75.34 141.16L321 64.51Z" id="c2WqatQYHk"></path><path d="" id="aO02xn4od"></path><path d="M416.47 287.45C416.47 299.38 406.79 309.07 394.86 309.07C382.92 309.07 373.24 299.38 373.24 287.45C373.24 275.52 382.92 265.83 394.86 265.83C406.79 265.83 416.47 275.52 416.47 287.45Z" id="bM6CpwxaT"></path><path d="M416.47 391.96C416.47 403.89 406.79 413.58 394.86 413.58C382.92 413.58 373.24 403.89 373.24 391.96C373.24 380.03 382.92 370.34 394.86 370.34C406.79 370.34 416.47 380.03 416.47 391.96Z" id="aTLMadN7"></path><path d="M510.96 242.5C508.74 251.75 501.48 257.94 494.77 256.32C488.05 254.71 484.4 245.89 486.63 236.65C488.85 227.41 496.1 221.22 502.82 222.83C509.53 224.45 513.18 233.26 510.96 242.5Z" id="aKecI2BjS"></path><path d="M464.27 383.32L498.82 239.58" id="cVv198lA"></path><path d="M477.07 383.49C474.85 392.73 467.59 398.92 460.87 397.31C454.16 395.69 450.51 386.88 452.73 377.64C454.95 368.39 462.21 362.2 468.92 363.82C475.64 365.43 479.29 374.24 477.07 383.49Z" id="i2J6PqGbo6"></path></defs><g><g><g><use xlink:href="#a7NbXgq6Z" opacity="1" fill="#ce7933" fill-opacity="1"></use></g><g><use xlink:href="#ccoPrnf" opacity="1" fill="#e7915d" fill-opacity="1"></use></g><g><use xlink:href="#a3NgBNrkDT" opacity="1" fill="#ffa55a" fill-opacity="1"></use></g><g><use xlink:href="#c2WqatQYHk" opacity="1" fill="#ffb981" fill-opacity="1"></use></g><g><g><use xlink:href="#aO02xn4od" opacity="1" fill-opacity="0" stroke="#000000" stroke-width="1" stroke-opacity="1"></use></g></g><g><use xlink:href="#bM6CpwxaT" opacity="1" fill="#f85229" fill-opacity="1"></use></g><g><use xlink:href="#aTLMadN7" opacity="1" fill="#f85229" fill-opacity="1"></use></g><g><g><use xlink:href="#aKecI2BjS" opacity="1" fill="#f85229" fill-opacity="1"></use><g><use xlink:href="#aKecI2BjS" opacity="1" fill-opacity="0" stroke="#f85229" stroke-width="0" stroke-opacity="1"></use></g></g><g><use xlink:href="#cVv198lA" opacity="1" fill="#f85229" fill-opacity="1"></use><g><use xlink:href="#cVv198lA" opacity="1" fill-opacity="0" stroke="#f85229" stroke-width="25" stroke-opacity="1"></use></g></g><g><use xlink:href="#i2J6PqGbo6" opacity="1" fill="#f85229" fill-opacity="1"></use><g><use xlink:href="#i2J6PqGbo6" opacity="1" fill-opacity="0" stroke="#f85229" stroke-width="0" stroke-opacity="1"></use></g></g></g></g></g></svg>